<!DOCTYPE svg PUBLIC "-//W3C//DTD SVG 20010904//EN" "http://www.w3.org/TR/2001/REC-SVG-20010904/DTD/svg10.dtd">
<svg version="1.0" xmlns="http://www.w3.org/2000/svg" width="136px" height="237px" viewBox="0 0 1360 2370" preserveAspectRatio="xMidYMid meet">
<g id="layer1" fill="#f16649" stroke="none">
 <path d="M1135 2321 c-11 -5 -31 -21 -45 -36 l-25 -27 0 -319 0 -319 32 -32 c26 -26 41 -33 73 -33 32 0 47 7 73 33 l32 32 0 320 0 320 -30 30 c-32 32 -78 45 -110 31z"/>
 <path d="M533 2190 c-60 -36 -68 -83 -25 -147 15 -23 69 -96 120 -163 50 -66 92 -123 92 -127 0 -3 25 -36 55 -72 30 -36 65 -79 77 -94 39 -47 82 -48 138 0 25 20 30 32 30 66 0 44 -11 64 -72 139 -21 25 -38 48 -38 52 0 4 -20 31 -44 59 -24 29 -61 77 -83 108 -46 67 -86 118 -129 165 -37 40 -72 44 -121 14z"/>
 <path d="M223 1860 c-39 -23 -53 -48 -53 -92 0 -46 11 -56 289 -252 206 -146 239 -166 273 -166 50 0 84 23 98 65 14 43 5 77 -28 107 -42 39 -468 337 -497 348 -36 14 -45 13 -82 -10z"/>
 <path d="M115 1301 c-40 -17 -70 -60 -70 -102 0 -31 7 -46 33 -72 l32 -32 320 0 320 0 32 32 c46 46 46 100 0 146 l-32 32 -308 2 c-169 1 -316 -2 -327 -6z"/>
 <path d="M608 995 c-54 -36 -100 -65 -103 -65 -3 0 -36 -22 -74 -49 -38 -28 -106 -71 -151 -97 -97 -57 -120 -83 -120 -136 0 -32 7 -47 34 -74 50 -50 74 -46 188 31 54 36 100 65 104 65 3 0 36 22 73 48 36 27 100 68 141 92 95 55 117 75 125 112 12 52 -2 95 -39 117 -18 12 -44 21 -57 21 -13 0 -68 -29 -121 -65z"/>
 <path d="M828 789 c-33 -35 -67 -75 -76 -89 -9 -14 -51 -71 -94 -127 -187 -243 -188 -245 -188 -281 0 -26 9 -43 35 -69 31 -31 40 -35 73 -30 29 5 49 19 90 64 30 32 62 71 73 88 10 16 50 70 89 120 167 215 181 235 185 270 4 29 -1 41 -28 70 -19 21 -46 38 -65 41 -32 6 -38 3 -94 -57z"/>
 <path d="M1135 801 c-11 -5 -31 -21 -45 -36 l-25 -27 0 -319 0 -319 32 -32 c26 -26 41 -33 73 -33 32 0 47 7 73 33 l32 32 0 320 0 320 -30 30 c-32 32 -78 45 -110 31z"/>
 </g>

</svg>